<svg xmlns="http://www.w3.org/2000/svg" fill="none" viewBox="166.99 140.72 946.02 946.02">
<path d="M640 1086.74C901.236 1086.74 1113.01 874.967 1113.01 613.731C1113.01 352.494 901.236 140.721 640 140.721C378.764 140.721 166.99 352.494 166.99 613.731C166.99 874.967 378.764 1086.74 640 1086.74Z" fill="#CC4D2B"/>
<path d="M710.86 994.82C710.86 994.82 715 1057 769 1069C769 1069 757.03 1065.02 742.02 1006.39C742.02 1006.39 739 992.32 736.53 971.19C734.06 950.07 710.67 964.29 710.86 994.83" fill="white"/>
<path d="M786.02 1050.59C785.85 1050.62 785.7 1050.63 785.6 1050.63L785.57 1046.86C785.57 1046.86 790.28 1045.78 807.69 1029.27C825.59 1012.3 821.62 997.381 821.45 996.761L825.07 995.711C825.28 996.421 829.97 1013.36 810.29 1032.02C793.71 1047.74 787.84 1050.27 786.03 1050.6L786.02 1050.59Z" fill="white"/>
<path d="M821.64 1015.72L817.89 1015.33C818.29 1011.48 812.33 1005.85 810.21 1004.18L812.55 1001.22C813.55 1002.01 822.34 1009.12 821.65 1015.73L821.64 1015.72Z" fill="white"/>
<path d="M817.4 1023.19L813.65 1022.8C814.05 1018.95 808.09 1013.32 805.97 1011.65L808.31 1008.69C809.31 1009.48 818.1 1016.59 817.41 1023.2L817.4 1023.19Z" fill="white"/>
<path d="M809.73 1030.68L805.98 1030.29C806.38 1026.44 800.42 1020.8 798.3 1019.13L800.64 1016.17C801.64 1016.96 810.43 1024.07 809.74 1030.68H809.73Z" fill="white"/>
<path d="M803.77 1038.17L800.02 1037.78C800.42 1033.93 794.46 1028.3 792.34 1026.63L794.68 1023.66C795.68 1024.45 804.48 1031.56 803.78 1038.17H803.77Z" fill="white"/>
<path d="M797.88 1040.52L794.14 1040.98C794.14 1040.93 793.45 1035.9 790.24 1035.76L790.42 1031.99C795.51 1032.23 797.51 1037.46 797.88 1040.52Z" fill="white"/>
<path d="M657.79 1031.65C657.79 1031.65 670.1 1048.94 682.31 1050.3C694.51 1051.65 686.35 1033.89 670.91 1028.31C670.91 1028.31 663.04 1026.71 656.34 1024.5C649.64 1022.29 657.79 1031.64 657.79 1031.64" fill="white"/>
<path d="M356.551 377.291V367.421H363.541V299.741H356.551V289.871H384.271V299.741H373.911V367.421H409.251V358.051H419.121V377.281H356.561L356.551 377.291Z" fill="white"/>
<path d="M438.6 298.43C437.6 301.55 435.93 304.28 433.6 306.61L428.48 303.61C430.23 301.95 431.5 299.89 432.29 297.43C433.08 294.98 433.18 292.29 432.6 289.38C433.68 289.21 434.76 289.07 435.85 288.94C436.93 288.82 438.01 288.67 439.1 288.5C439.77 292 439.6 295.31 438.6 298.43Z" fill="white"/>
<path d="M440.471 377.291V367.421H450.711C456.451 353.681 462.221 340.091 468.011 326.651C473.801 313.211 479.561 299.611 485.311 285.881C491.051 299.621 496.821 313.211 502.611 326.651C508.401 340.101 514.161 353.691 519.901 367.421H530.141V377.291H502.421V367.421H509.411C507.661 363.261 505.931 359.141 504.231 355.061C502.521 350.981 500.801 346.861 499.051 342.701H471.581C469.251 348.191 467.501 352.321 466.331 355.061C465.161 357.811 463.411 361.931 461.091 367.421H468.211V377.291H440.491H440.471ZM479.621 323.161C478.251 326.701 476.981 329.921 475.811 332.841H494.791L486.421 312.981L485.171 308.861C484.841 310.191 484.571 311.151 484.361 311.731C484.151 312.311 484.001 312.731 483.921 312.981C482.421 316.231 480.991 319.621 479.611 323.161H479.621Z" fill="white"/>
<path d="M577.891 340.521C572.101 353.971 566.341 367.561 560.601 381.291C554.861 367.551 549.091 353.961 543.301 340.521C537.511 327.081 531.751 313.481 526.001 299.751H515.141V289.881H545.361V299.751H536.371C540.281 308.821 544.131 317.901 547.921 326.971C551.711 336.051 555.561 345.121 559.471 354.191L560.591 358.311L561.711 354.191C565.621 345.121 569.471 336.061 573.261 327.031C577.051 318.001 580.861 308.901 584.691 299.741H577.321V289.871H607.541V299.741H595.181C589.441 313.481 583.671 327.071 577.881 340.511L577.891 340.521Z" fill="white"/>
<path d="M614.29 377.291V367.421H621.28V299.741H614.29V289.871H675.1V309.101H665.23V299.731H631.64V328.331H670.23V338.201H631.64V367.421H666.98V358.051H676.85V377.281H614.29V377.291Z" fill="white"/>
<path d="M777.261 381.291L713.321 313.361L710.951 310.111L711.331 314.111V367.431H720.321V377.301H690.101V367.431H700.961V299.751H690.101V289.881H704.591L764.901 355.191L767.271 358.441L766.891 354.441V299.741H757.901V289.871H788.121V299.741H777.261V381.281V381.291Z" fill="white"/>
<path d="M800.61 377.291V367.421H810.48V299.741H800.61V289.871H830.83V299.741H820.84V367.421H830.83V377.291H800.61Z" fill="white"/>
<path d="M846.811 377.291V367.421H852.431V299.741H846.811V289.871H873.031C875.861 289.871 879.001 290.311 882.461 291.181C885.911 292.051 889.141 293.451 892.141 295.361C895.141 297.281 897.641 299.731 899.631 302.731C901.621 305.731 902.631 309.351 902.631 313.591C902.631 319.831 901.071 325.041 897.951 329.201C894.831 333.361 890.271 336.111 884.281 337.441L898.271 367.411H910.011V377.281H891.781L873.421 338.191C872.251 338.191 871.361 338.211 870.741 338.251C870.121 338.291 869.221 338.311 868.061 338.311H862.811V367.411H877.051V377.281H846.831L846.811 377.291ZM862.791 328.341H873.651C877.311 328.341 880.331 327.861 882.701 326.901C885.071 325.941 886.971 324.761 888.381 323.341C889.801 321.931 890.791 320.341 891.381 318.591C891.961 316.841 892.251 315.181 892.251 313.591C892.251 311.761 891.771 310.011 890.811 308.341C889.851 306.681 888.581 305.181 887.001 303.841C885.331 302.591 883.361 301.591 881.071 300.841C878.781 300.091 876.341 299.721 873.761 299.721H862.771V328.321L862.791 328.341Z" fill="white"/>
<path d="M337.65 492.291V482.421H344.64V414.741H337.65V404.871H398.46V424.101H388.59V414.731H355V443.331H393.59V453.201H355V482.421H390.34V473.051H400.21V492.281H337.65V492.291Z" fill="white"/>
<path d="M502.36 496.291L438.42 428.361L436.05 425.111L436.42 429.111V482.431H445.41V492.301H415.19V482.431H426.05V414.751H415.19V404.881H429.68L489.99 470.191L492.36 473.441L491.99 469.441V414.741H483V404.871H513.22V414.741H502.36V496.281V496.291Z" fill="white"/>
<path d="M559.3 492.291V482.421H570.16V414.741H559.3V404.871H573.29C580.45 414.111 587.55 423.331 594.58 432.531C601.61 441.731 608.71 450.951 615.87 460.191C623.03 450.951 630.13 441.731 637.16 432.531C644.19 423.331 651.29 414.111 658.45 404.871H672.44V414.741H661.58V482.421H672.44V492.291H642.22V482.421H651.21V433.591C651.29 432.921 651.35 432.261 651.4 431.591C651.44 430.921 651.5 430.261 651.59 429.591C650.92 430.511 650.26 431.461 649.59 432.461C648.92 433.461 648.26 434.421 647.59 435.331L615.87 476.661L582.78 433.331C582.2 432.581 581.72 431.961 581.34 431.461C580.96 430.961 580.57 430.341 580.15 429.591C580.23 430.261 580.32 430.921 580.4 431.591C580.48 432.261 580.52 432.921 580.52 433.591V482.421H589.51V492.291H559.29H559.3Z" fill="white"/>
<path d="M685.32 492.291V482.421H695.56C701.3 468.681 707.07 455.091 712.86 441.651C718.65 428.211 724.41 414.611 730.15 400.881C735.89 414.621 741.66 428.211 747.44 441.651C753.23 455.101 758.99 468.691 764.74 482.421H774.98V492.291H747.26V482.421H754.25C752.5 478.261 750.77 474.141 749.07 470.061C747.36 465.981 745.64 461.861 743.89 457.701H716.42C714.09 463.191 712.34 467.321 711.17 470.061C710 472.811 708.25 476.931 705.93 482.421H713.05V492.291H685.33H685.32ZM724.46 438.161C723.09 441.701 721.82 444.921 720.65 447.841H739.63L731.26 427.981L730.01 423.861C729.68 425.191 729.41 426.151 729.2 426.731C728.99 427.311 728.84 427.731 728.76 427.981C727.26 431.231 725.83 434.621 724.45 438.161H724.46Z" fill="white"/>
<path d="M787.851 492.291V482.421H797.721V414.741H787.851V404.871H818.071V414.741H808.081V482.421H818.071V492.291H787.851Z" fill="white"/>
<path d="M918.03 496.291L854.09 428.361L851.72 425.111L852.1 429.111V482.431H861.09V492.301H830.87V482.431H841.73V414.751H830.87V404.881H845.36L905.67 470.191L908.04 473.441L907.66 469.441V414.741H898.67V404.871H928.89V414.741H918.03V496.281V496.291Z" fill="white"/>
<path d="M860.01 747.74C860.01 747.74 849.97 713.18 841.8 684.24C838.89 673.94 836.22 664.35 834.33 657.3C827.11 630.31 815.68 624.2 798.37 622.77C785.22 621.69 761.53 606.76 761.05 606.46C761.05 606.46 686.83 566.89 661.59 553.17C653.6 548.82 638.38 532.34 621.15 511.54C620.75 511.06 616.4 505.48 616 504.99L610.22 510.08C610.7 510.67 611.18 511.25 611.65 511.84C630.44 534.79 648.34 554.57 657.98 559.81C683.2 573.51 757.24 612.99 757.25 612.99C758.29 613.65 782.76 629.07 797.76 630.3C810.65 631.37 820.3 634.07 827.04 659.25C828.94 666.32 831.61 675.94 834.53 686.29C835.23 688.78 835.95 691.32 836.67 693.87L833.48 694.26L843.94 780.41L847.09 825.53C846.87 826.18 846.47 827.32 845.86 828.68L817.85 756.33C814.23 745.8 804.96 716.48 805.55 707.44C806.53 692.54 794.51 670.74 789.3 662.06C780.48 647.34 763.66 648.41 762.95 648.46L763.49 656C764.02 655.97 776.42 655.28 782.81 665.95C790.6 678.93 798.68 696.51 798 706.95C797.21 719.14 809.31 754.77 810.74 758.93L840.16 834.86L845.99 854.22C845.6 856.91 843.8 866.9 837.78 874.32C829.64 884.36 822.97 903.3 822.62 904.3C822.56 904.53 815.78 927.39 797.4 946.96L791.44 953.31C776.09 969.64 769.74 976.4 765.89 983.93C763.35 988.93 757.71 992.26 755.16 993.57C751.96 992.11 744 987.3 744.86 975.81C746.41 955.07 750.93 939.03 756.65 933.96C761.41 929.74 763.74 928.64 764.46 928.38L767.84 928.95L768.24 924.92C768.26 924.65 771.09 897.12 779.67 880.93C785.64 869.68 788.24 868.25 788.34 868.2C787.93 868.39 786.67 868.52 785.54 867.51L790.68 861.97L790.58 861.9H790.59C790.38 861.7 770.09 843.37 765.74 830.6C761.03 816.85 751.9 792.45 751.82 792.2L751.16 790.44L749.35 789.9C744.98 788.6 737.3 785.26 735.31 781.83C731.8 775.75 718.17 755.38 717.59 754.52L716.9 753.74C716.57 753.47 713.58 751.12 709.58 752.05C706 752.9 703.04 756.01 700.81 761.28C697.99 767.88 694.99 771.16 693.19 773.12C692.12 774.29 691.17 775.33 690.78 776.68L690.68 776.62C688.26 779.14 681.85 785.83 686.95 801.77C692.45 818.93 710.69 870.21 711.07 871.18C711.2 871.43 723.86 896.48 722.6 914.1C721.25 932.98 718.36 945.53 712.94 956.07L712.55 956.84C708.47 964.79 697.67 985.92 690.81 985.2C684.28 984.52 681.97 983.28 681.65 972.05C681.57 969.12 681.8 965.29 682.05 961.02C682.85 947.55 683.83 930.8 677.51 921.01C673.85 915.34 665.49 895.26 658.11 877.54C649.85 857.7 642.72 840.58 639.28 835.65C633.12 826.83 609.93 783.1 608.2 776.15C605.96 767.21 594.12 754.05 587.88 750.52C583.71 748.16 570.31 727.7 565.63 705.62C557.09 665.46 544.41 638.23 528.16 624.88L420.11 520.56L414.86 526L523.14 630.52C538.05 642.78 550.19 669.3 558.24 707.2C563.09 730.05 577.31 753.23 584.17 757.11C588.84 759.75 599.25 771.51 600.88 777.99C602.98 786.39 626.95 831.21 633.1 839.99C636.07 844.25 643.74 862.66 651.15 880.46C659.37 900.22 667.15 918.89 671.18 925.12C676.16 932.83 675.22 948.87 674.53 960.58C674.26 965.1 674.03 969.17 674.11 972.27C674.45 984.21 677.16 991.38 690.05 992.72C701.09 993.82 710.55 977.33 719.3 960.31L719.7 959.54C724.66 949.9 727.66 938.91 729.34 923.86C735.98 923.69 751.59 913.45 763.95 904.5C762.36 911.86 761.45 918.28 761.03 921.67C758.51 922.8 755.37 925.03 751.65 928.34C741.58 937.27 738.36 961.59 737.33 975.29C737.29 975.89 737.26 976.48 737.26 977.06C737.64 979.98 738.02 982.73 738.39 985.28C741.34 994.79 749.33 999.82 754.2 1001.33L755.5 1001.73L756.76 1001.21C757.22 1001.02 768.03 996.46 772.64 987.4C776 980.82 782.14 974.3 796.97 958.52L802.93 952.17C822.61 931.21 829.61 907.43 829.84 906.63C829.9 906.45 836.36 888.13 843.66 879.12C852.1 868.72 853.55 854.9 853.61 854.31L853.68 853.57L848.91 837.73L849.27 837.99C852.9 832.96 854.5 827.27 854.56 827.03L853.83 813.49C856.19 812.57 859.52 810.97 863.59 808.79C875.51 802.41 867.32 782.48 866.59 780.99L860.02 747.78L860.01 747.74ZM745.39 796.55C746.24 798.81 747.83 803.11 749.7 808.19C746.56 810.57 740.92 815.06 735.42 820.46L735.16 818.01C736.02 817.92 736.77 818.48 736.94 818.83C736.68 818.33 736.54 816.61 736.65 814.82C736.47 810.81 740.85 802.09 744.39 796.2C744.76 796.33 745.09 796.45 745.39 796.56V796.55ZM694.16 799.45C690.43 787.8 694.15 783.92 696.14 781.84C696.88 781.08 697.69 780.23 698.02 779.04C698.21 778.81 698.48 778.54 698.77 778.22C700.76 776.05 704.46 772.03 707.78 764.23C709.53 760.09 711.02 759.49 711.3 759.41C711.48 759.38 711.66 759.38 711.79 759.42C714.25 763.11 725.75 780.36 728.78 785.61C730.57 788.71 734 791.21 737.43 793.08C734.22 798.49 728.8 808.58 729.09 814.68C728.93 816.63 728.83 821.43 731.43 823.98C731.52 824.08 731.62 824.17 731.72 824.25C728.27 827.99 725.14 832 723.03 835.96C719.45 842.7 715.99 849.8 713.41 855.24C707.6 838.79 697.88 811.12 694.14 799.45H694.16ZM717.03 865.41C719.15 860.78 724.3 849.72 729.73 839.51C734.54 830.46 746.18 820.56 752.42 815.66C754.63 821.75 756.9 828.1 758.6 833.05C758.65 833.18 758.69 833.32 758.74 833.45C752.63 836.35 737.25 844.23 729.75 853.47C727.54 856.2 725.76 858.31 724.26 860.09C721.63 863.22 719.77 865.43 717.99 868.1C717.9 867.83 717.56 866.89 717.03 865.41ZM730.03 916.24C730.07 915.7 730.11 915.16 730.15 914.61C731.08 901.63 725.7 885.92 721.8 876.49C724.27 871.8 726.02 869.72 730.04 864.94C731.56 863.13 733.37 860.98 735.62 858.22C742.12 850.21 756.49 842.88 762.05 840.23C767.51 849.43 776.63 858.92 781.77 863.92C779.55 866.25 776.75 870.31 773 877.37C770.54 882.02 768.52 887.41 766.89 892.86C752.45 903.75 734.83 915.35 730.03 916.23V916.24ZM860.01 802.08C857.01 803.69 854.82 804.76 853.26 805.47L851.46 779.7L844.27 720.5C848.98 736.88 852.66 749.53 852.66 749.52L859.39 783.17C861.58 788.27 864.61 799.6 860 802.07L860.01 802.08Z" fill="white"/>
</svg>